HIERARCHY
ROOT Hips
{
	OFFSET	0.00	0.00	0.00
	CHANNELS 6 Xposition Yposition Zposition Zrotation Xrotation Yrotation
	JOINT LeftUpLeg
	{
		OFFSET	 0.126116	-0.014019	-0.065224
		CHANNELS 3 Zrotation Xrotation Yrotation
		JOINT LeftLeg
		{
			OFFSET	 0.000000	 0.000000	 0.569914
			CHANNELS 3 Zrotation Xrotation Yrotation
			JOINT LeftFoot
			{
				OFFSET	 0.000000	 0.000000	 0.544423
				CHANNELS 3 Zrotation Xrotation Yrotation
				JOINT LeftToeBase
				{
					OFFSET	 0.000000	 0.000000	 0.207117
					CHANNELS 3 Zrotation Xrotation Yrotation
					End Site
					{
						OFFSET	 0.000000	 0.000000	 0.207117
					}
				}
			}
		}
	}
	JOINT RightUpLeg
	{
		OFFSET	-0.124023	-0.008373	-0.065224
		CHANNELS 3 Zrotation Xrotation Yrotation
		JOINT RightLeg
		{
			OFFSET	 0.000000	 0.000000	 0.570047
			CHANNELS 3 Zrotation Xrotation Yrotation
			JOINT RightFoot
			{
				OFFSET	 0.000000	 0.000000	 0.544354
				CHANNELS 3 Zrotation Xrotation Yrotation
				JOINT RightToeBase
				{
					OFFSET	 0.000000	 0.000000	 0.207540
					CHANNELS 3 Zrotation Xrotation Yrotation
					End Site
					{
						OFFSET	 0.000000	 0.000000	 0.207540
					}
				}
			}
		}
	}
	JOINT Spine
	{
		OFFSET	 0.000184	-0.007763	 0.117403
		CHANNELS 3 Zrotation Xrotation Yrotation
		JOINT Spine1
		{
			OFFSET	 0.000000	 0.000000	 0.137269
			CHANNELS 3 Zrotation Xrotation Yrotation
			JOINT Spine2
			{
				OFFSET	 0.000000	 0.000000	 0.156879
				CHANNELS 3 Zrotation Xrotation Yrotation
				JOINT LeftShoulder
				{
					OFFSET	 0.080501	-0.002496	 0.160144
					CHANNELS 3 Zrotation Xrotation Yrotation
					JOINT LeftArm
					{
						OFFSET	 0.000000	 0.000000	 0.164363
						CHANNELS 3 Zrotation Xrotation Yrotation
						JOINT LeftForeArm
						{
							OFFSET	 0.000000	 0.000000	 0.364576
							CHANNELS 3 Zrotation Xrotation Yrotation
							JOINT LeftHand
							{
								OFFSET	 0.000000	 0.000000	 0.360812
								CHANNELS 3 Zrotation Xrotation Yrotation
								JOINT LeftHandIndex1
								{
									OFFSET	 0.000000	 0.000000	 0.086006
									CHANNELS 3 Zrotation Xrotation Yrotation
									JOINT LeftHandIndex2
									{
										OFFSET	 0.000000	 0.000000	 0.047237
										CHANNELS 3 Zrotation Xrotation Yrotation
										JOINT LeftHandIndex3
										{
											OFFSET	-0.004284	-0.000551	 0.038165
											CHANNELS 3 Zrotation Xrotation Yrotation
											End Site
											{
												OFFSET	-0.004284	-0.000551	 0.038165
											}
										}
									}
								}
							}
						}
					}
				}
				JOINT Neck
				{
					OFFSET	 0.000000	 0.000000	 0.176489
					CHANNELS 3 Zrotation Xrotation Yrotation
					JOINT Head
					{
						OFFSET	 0.000000	-0.001747	 0.077940
						CHANNELS 3 Zrotation Xrotation Yrotation
						End Site
						{
							OFFSET	 0.000000	-0.001747	 0.077940
						}
					}
				}
				JOINT RightShoulder
				{
					OFFSET	-0.080363	 0.000306	 0.159706
					CHANNELS 3 Zrotation Xrotation Yrotation
					JOINT RightArm
					{
						OFFSET	 0.000000	 0.000000	 0.164196
						CHANNELS 3 Zrotation Xrotation Yrotation
						JOINT RightForeArm
						{
							OFFSET	 0.000000	 0.000000	 0.365611
							CHANNELS 3 Zrotation Xrotation Yrotation
							JOINT RightHand
							{
								OFFSET	 0.000000	 0.000000	 0.360648
								CHANNELS 3 Zrotation Xrotation Yrotation
								JOINT RightHandIndex1
								{
									OFFSET	 0.000000	 0.000000	 0.069977
									CHANNELS 3 Zrotation Xrotation Yrotation
									JOINT RightHandIndex2
									{
										OFFSET	 0.000000	 0.000000	 0.052305
										CHANNELS 3 Zrotation Xrotation Yrotation
										JOINT RightHandIndex3
										{
											OFFSET	 0.009002	-0.000782	 0.042196
											CHANNELS 3 Zrotation Xrotation Yrotation
											End Site
											{
												OFFSET	 0.009002	-0.000782	 0.042196
											}
										}
									}
								}
							}
						}
					}
				}
			}
		}
	}
}
MOTION
Frames:    9
Frame Time: 0.03333334
-0.048845	-0.294266	 1.198768	 178.517300	 2.643333	 3.301860	 6.972908	-38.154670	 169.930300	-7.410820	-68.108280	-6.620666	 55.288420	 83.908800	-52.779900	-2.325987	 37.303940	-0.205587	 5.321235	-34.258380	-178.422200	 3.366323	-70.870730	 3.821175	 88.630220	 87.378710	-83.825510	 2.404264	 21.789480	-0.137350	 4.838406	 8.158429	-3.542150	-0.735411	 9.203128	-15.629610	-8.267653	-6.485880	 16.006220	-96.855840	 86.735770	-170.910500	 43.015550	 61.156400	-57.955380	-7.797620	-4.530758	-43.352620	-5.089854	-0.031160	-5.172137	-6.633015	-19.147190	-2.894087	-5.213519	-0.193819	 3.566523	-1.378229	 35.397820	-2.634230	 1.720568	 1.317507	-0.370441	-2.124561	 15.578400	 3.752157	 104.097900	 88.275120	 160.878900	-45.350990	 67.969970	 71.179520	-8.435463	-0.701824	 1.153521	-13.052870	-25.536700	 7.936340	-9.553288	-10.128060	-38.014720	 5.070817	-0.697411	-9.399697	-2.350882	 35.473990	 5.254307
-0.048834	-0.294191	 1.198964	 178.558400	 2.885632	 3.277390	 7.018105	-38.408330	 170.009300	-7.272856	-68.082230	-6.491202	 54.961030	 83.951880	-52.442940	-2.328888	 36.992840	-0.197764	 5.482121	-34.483970	-178.370700	 3.465727	-70.833500	 3.914262	 91.943090	 87.413810	-87.124700	 2.404703	 21.505700	-0.143049	 4.788821	 8.113010	-3.449685	-0.754573	 8.817585	-15.691920	-8.298754	-6.325061	 16.009640	-96.855810	 86.735770	-170.910600	 43.037850	 61.229780	-57.973760	-7.717310	-4.595789	-43.280520	-5.107988	-0.065358	-5.164143	-6.622880	-19.129650	-2.874679	-5.213519	-0.193819	 3.566523	-1.378229	 35.397820	-2.634230	 1.763106	 1.307228	-0.377411	-2.100290	 15.529800	 3.837004	 104.097400	 88.274890	 160.879300	-44.925130	 67.979480	 71.096620	-8.515976	-0.267007	 0.437466	-13.085240	-25.669040	 8.080472	-9.543769	-10.125500	-37.994780	 5.070817	-0.697411	-9.399697	-2.350882	 35.473990	 5.254307
-0.048818	-0.294138	 1.199047	 178.586200	 3.036639	 3.260378	 7.043102	-38.568330	 170.060000	-7.187485	-68.070830	-6.411340	 54.753780	 83.978030	-52.230100	-2.330585	 36.805960	-0.193103	 5.578744	-34.628250	-178.335600	 3.531263	-70.818500	 3.975838	 94.214680	 87.430670	-89.387990	 2.404940	 21.344410	-0.146285	 4.758159	 8.084700	-3.388503	-0.766103	 8.565105	-15.728850	-8.320283	-6.217003	 16.010300	-96.855790	 86.735770	-170.910600	 43.059250	 61.272650	-57.991520	-7.666986	-4.636531	-43.236510	-5.116217	-0.083339	-5.159049	-6.615648	-19.116390	-2.860891	-5.213519	-0.193819	 3.566523	-1.378229	 35.397820	-2.634230	 1.789744	 1.300764	-0.382689	-2.085179	 15.500530	 3.890805	 104.097300	 88.275120	 160.879400	-44.894800	 68.022800	 71.027420	-8.560520	-0.268376	 0.439057	-13.198680	-25.553490	 7.952189	-9.537884	-10.123430	-37.982790	 5.070817	-0.697411	-9.399697	-2.350882	 35.473990	 5.254307
-0.048785	-0.294055	 1.199113	 178.627700	 3.237852	 3.233273	 7.071799	-38.782920	 170.132500	-7.072230	-68.060780	-6.303757	 54.526010	 84.015420	-51.996740	-2.332680	 36.573880	-0.187315	 5.697824	-34.824320	-178.282600	 3.626257	-70.808220	 4.065363	 97.702540	 87.445950	-92.864870	 2.405187	 21.169190	-0.149800	 4.716073	 8.047056	-3.300155	-0.781959	 8.213649	-15.774940	-8.352085	-6.062242	 16.007960	-96.855800	 86.735770	-170.910600	 43.096580	 61.325900	-58.023280	-7.599510	-4.691113	-43.178620	-5.122762	-0.103129	-5.152462	-6.603628	-19.095970	-2.837816	-5.213519	-0.193819	 3.566523	-1.378229	 35.397820	-2.634230	 1.825778	 1.291948	-0.392281	-2.065588	 15.462440	 3.965480	 104.098500	 88.274890	 160.878300	-44.836120	 68.076930	 70.926250	-8.615168	-0.267746	 0.437109	-13.342910	-25.384050	 7.776117	-9.530085	-10.120070	-37.967290	 5.070817	-0.697411	-9.399697	-2.350882	 35.473990	 5.254307
-0.048737	-0.293950	 1.199128	 178.673500	 3.459404	 3.203234	 7.098345	-39.022140	 170.211000	-6.949037	-68.057910	-6.189141	 54.209690	 84.054100	-51.672890	-2.334909	 36.320530	-0.181055	 5.828553	-35.045700	-178.222800	 3.732352	-70.808580	 4.165633	 101.476800	 87.450860	-96.628390	 2.405442	 20.977900	-0.153630	 4.672186	 8.003542	-3.201382	-0.797714	 7.809831	-15.821780	-8.389908	-5.880955	 16.004610	-96.855850	 86.735770	-170.910500	 43.149330	 61.379230	-58.067550	-7.525513	-4.750795	-43.115520	-5.123971	-0.119394	-5.145195	-6.590432	-19.070250	-2.812747	-5.213519	-0.193819	 3.566523	-1.378229	 35.397820	-2.634230	 1.865097	 1.282288	-0.402730	-2.043695	 15.421900	 4.046985	 104.097200	 88.275010	 160.879600	-44.751020	 68.136670	 70.800330	-8.669619	-0.268195	 0.436868	-13.496920	-25.179970	 7.576229	-9.521629	-10.115730	-37.950980	 5.070817	-0.697411	-9.399697	-2.350882	 35.473990	 5.254307
-0.048688	-0.293855	 1.199129	 178.716600	 3.654324	 3.171621	 7.120667	-39.231600	 170.287000	-6.838636	-68.055050	-6.086441	 53.933030	 84.086760	-51.390430	-2.336724	 36.112530	-0.175926	 5.941127	-35.241410	-178.162700	 3.823120	-70.812730	 4.251520	 104.856000	 87.445950	-99.996390	 2.405602	 20.846150	-0.156255	 4.632153	 7.968781	-3.110581	-0.813299	 7.447156	-15.856730	-8.424071	-5.719421	 15.996860	-96.856070	 86.735770	-170.910300	 43.201130	 61.422270	-58.109710	-7.467589	-4.796390	-43.060660	-5.131551	-0.131361	-5.139716	-6.578204	-19.044470	-2.789668	-5.213519	-0.193819	 3.566523	-1.378229	 35.397820	-2.634230	 1.900125	 1.273628	-0.406104	-2.023783	 15.386560	 4.122917	 104.097100	 88.275120	 160.879700	-44.674700	 68.185600	 70.688060	-8.712359	-0.268686	 0.436844	-13.618540	-24.994820	 7.404243	-9.514195	-10.111240	-37.937060	 5.070817	-0.697411	-9.399697	-2.350882	 35.473990	 5.254307
-0.048662	-0.293778	 1.199245	 178.761400	 3.868466	 3.137089	 7.144015	-39.452490	 170.372800	-6.716246	-68.034120	-5.971830	 53.531230	 84.115670	-50.982630	-2.338569	 35.895550	-0.170608	 6.060577	-35.445220	-178.095600	 3.913223	-70.794080	 4.336186	 107.970400	 87.437610	-103.099800	 2.405766	 20.715080	-0.158877	 4.584527	 7.927742	-3.022074	-0.836167	 7.090218	-15.889790	-8.455531	-5.563844	 15.985880	-96.856070	 86.735710	-170.910300	 43.239770	 61.463200	-58.140930	-7.407653	-4.842269	-42.997790	-5.140439	-0.149016	-5.134159	-6.565052	-19.014240	-2.765036	-5.213519	-0.193819	 3.566523	-1.378229	 35.397820	-2.634230	 1.937359	 1.264376	-0.408292	-2.002348	 15.349640	 4.204387	 104.098000	 88.274890	 160.878800	-44.627930	 68.246120	 70.587780	-8.750813	-0.268481	 0.435927	-13.740110	-24.833150	 7.250363	-9.506345	-10.105900	-37.922760	 5.070817	-0.697411	-9.399697	-2.350882	 35.473990	 5.254307
-0.048662	-0.293735	 1.199467	 178.801500	 4.068412	 3.104313	 7.166570	-39.650160	 170.456500	-6.599028	-67.997090	-5.861424	 53.055880	 84.135660	-50.501400	-2.340239	 35.697610	-0.165775	 6.173082	-35.624770	-178.031000	 3.986252	-70.754340	 4.404133	 110.350400	 87.429910	-105.470300	 2.405900	 20.602730	-0.161116	 4.535973	 7.893375	-2.948964	-0.863011	 6.788071	-15.916630	-8.479223	-5.437280	 15.973690	-96.856130	 86.735710	-170.910200	 43.257880	 61.496660	-58.155550	-7.355283	-4.881355	-42.936630	-5.151912	-0.170356	-5.129425	-6.552956	-18.983720	-2.742579	-5.213519	-0.193819	 3.566523	-1.378229	 35.397820	-2.634230	 1.971703	 1.255708	-0.409454	-1.982349	 15.315940	 4.280210	 104.098000	 88.275120	 160.878800	-44.623740	 68.306980	 70.518010	-8.838295	-0.269649	 0.437444	-13.782830	-24.716620	 7.134296	-9.499184	-10.100420	-37.910140	 5.070817	-0.697411	-9.399697	-2.350882	 35.473990	 5.254307
-0.048688	-0.293716	 1.199844	 178.843700	 4.295803	 3.063204	 7.199458	-39.864480	 170.560700	-6.464733	-67.934620	-5.734178	 52.458070	 84.147130	-49.900860	-2.342010	 35.484100	-0.160573	 6.306592	-35.817130	-177.950700	 4.046691	-70.685660	 4.459376	 112.469100	 87.422760	-107.577300	 2.406013	 20.504550	-0.163070	 4.476592	 7.852406	-2.872492	-0.899739	 6.488260	-15.942820	-8.499279	-5.316862	 15.957470	-96.856050	 86.735650	-170.910300	 43.257180	 61.528340	-58.153210	-7.306257	-4.915417	-42.866580	-5.177508	-0.200135	-5.125275	-6.539650	-18.946820	-2.718139	-5.213519	-0.193819	 3.566523	-1.378229	 35.397820	-2.634230	 2.009912	 1.245642	-0.408047	-1.959624	 15.278570	 4.366454	 104.097600	 88.275120	 160.879200	-44.666990	 68.377110	 70.473440	-8.815639	-0.268594	 0.435198	-13.923540	-24.625600	 7.038888	-9.492048	-10.093020	-37.898850	 5.070817	-0.697411	-9.399697	-2.350882	 35.473990	 5.254307
